<svg xmlns="http://www.w3.org/2000/svg" xmlns:xlink="http://www.w3.org/1999/xlink" width="800" zoomAndPan="magnify" viewBox="0 0 600 599.999999" height="800" preserveAspectRatio="xMidYMid meet" version="1.0"><defs><g/><clipPath id="cd7b595202"><path d="M 287 256 L 378.113281 256 L 378.113281 336.425781 L 287 336.425781 Z M 287 256 " clip-rule="nonzero"/></clipPath><clipPath id="a37b70421d"><path d="M 326 240.425781 L 339 240.425781 L 339 290 L 326 290 Z M 326 240.425781 " clip-rule="nonzero"/></clipPath></defs><g clip-path="url(#cd7b595202)"><path fill="#2a9e82" d="M 332.554688 336.378906 C 307.441406 336.378906 287.007812 315.945312 287.007812 290.832031 C 287.007812 278.28125 292.261719 266.160156 301.429688 257.578125 C 303.757812 255.40625 307.398438 255.527344 309.578125 257.847656 C 311.75 260.171875 311.632812 263.816406 309.308594 265.992188 C 302.359375 272.5 298.53125 281.320312 298.53125 290.832031 C 298.53125 309.59375 313.792969 324.855469 332.554688 324.855469 C 351.316406 324.855469 366.578125 309.59375 366.578125 290.832031 C 366.578125 281.535156 362.894531 272.84375 356.203125 266.375 C 353.917969 264.160156 353.855469 260.511719 356.066406 258.226562 C 358.277344 255.945312 361.925781 255.871094 364.214844 258.089844 C 373.167969 266.753906 378.105469 278.382812 378.105469 290.832031 C 378.101562 315.945312 357.667969 336.378906 332.554688 336.378906 Z M 332.554688 336.378906 " fill-opacity="1" fill-rule="nonzero"/></g><g clip-path="url(#a37b70421d)"><path fill="#2a9e82" d="M 332.554688 289.71875 C 329.371094 289.71875 326.792969 287.136719 326.792969 283.953125 L 326.792969 246.191406 C 326.792969 243.007812 329.371094 240.425781 332.554688 240.425781 C 335.738281 240.425781 338.316406 243.007812 338.316406 246.191406 L 338.316406 283.957031 C 338.316406 287.136719 335.738281 289.71875 332.554688 289.71875 Z M 332.554688 289.71875 " fill-opacity="1" fill-rule="nonzero"/></g><g fill="#000000" fill-opacity="1"><g transform="translate(59.999998, 331.026963)"><g><path d="M 28.171875 -7.765625 C 28.171875 -6.128906 28.648438 -4.738281 29.609375 -3.59375 C 30.460938 -2.34375 31.660156 -1.476562 33.203125 -1 L 36.5 0 L 7.1875 0 L 10.484375 -1 C 12.023438 -1.476562 13.273438 -2.34375 14.234375 -3.59375 C 15.085938 -4.738281 15.515625 -6.128906 15.515625 -7.765625 L 15.515625 -92.96875 C 15.515625 -94.601562 15.085938 -96.039062 14.234375 -97.28125 C 13.273438 -98.4375 12.023438 -99.253906 10.484375 -99.734375 L 7.1875 -100.734375 L 36.5 -100.734375 L 33.203125 -99.734375 C 31.660156 -99.253906 30.460938 -98.4375 29.609375 -97.28125 C 28.648438 -96.039062 28.171875 -94.601562 28.171875 -92.96875 Z M 28.171875 -7.765625 "/></g></g></g><g fill="#000000" fill-opacity="1"><g transform="translate(103.684804, 331.026963)"><g><path d="M 81.1875 -81.484375 L 78.46875 -80.765625 C 77.21875 -80.378906 76.207031 -79.707031 75.4375 -78.75 C 74.675781 -77.789062 74.296875 -76.640625 74.296875 -75.296875 L 74.296875 0 L 73.71875 0 L 14.65625 -76.453125 L 14.65625 -6.171875 C 14.65625 -4.835938 15.039062 -3.691406 15.8125 -2.734375 C 16.570312 -1.773438 17.578125 -1.101562 18.828125 -0.71875 L 21.5625 0 L 7.46875 0 L 10.203125 -0.71875 C 11.453125 -1.101562 12.457031 -1.773438 13.21875 -2.734375 C 13.988281 -3.691406 14.375 -4.835938 14.375 -6.171875 L 14.375 -75.296875 C 14.375 -76.640625 13.988281 -77.789062 13.21875 -78.75 C 12.457031 -79.707031 11.453125 -80.378906 10.203125 -80.765625 L 7.46875 -81.484375 L 23.71875 -81.484375 L 73.859375 -16.53125 L 73.859375 -75.15625 C 73.859375 -76.5 73.476562 -77.648438 72.71875 -78.609375 C 71.945312 -79.566406 70.941406 -80.238281 69.703125 -80.625 L 66.96875 -81.484375 Z M 81.1875 -81.484375 "/></g></g></g><g fill="#000000" fill-opacity="1"><g transform="translate(191.772923, 331.026963)"><g><path d="M 81.1875 -81.484375 L 78.46875 -80.765625 C 77.21875 -80.378906 76.207031 -79.707031 75.4375 -78.75 C 74.675781 -77.789062 74.296875 -76.640625 74.296875 -75.296875 L 74.296875 0 L 73.71875 0 L 14.65625 -76.453125 L 14.65625 -6.171875 C 14.65625 -4.835938 15.039062 -3.691406 15.8125 -2.734375 C 16.570312 -1.773438 17.578125 -1.101562 18.828125 -0.71875 L 21.5625 0 L 7.46875 0 L 10.203125 -0.71875 C 11.453125 -1.101562 12.457031 -1.773438 13.21875 -2.734375 C 13.988281 -3.691406 14.375 -4.835938 14.375 -6.171875 L 14.375 -75.296875 C 14.375 -76.640625 13.988281 -77.789062 13.21875 -78.75 C 12.457031 -79.707031 11.453125 -80.378906 10.203125 -80.765625 L 7.46875 -81.484375 L 23.71875 -81.484375 L 73.859375 -16.53125 L 73.859375 -75.15625 C 73.859375 -76.5 73.476562 -77.648438 72.71875 -78.609375 C 71.945312 -79.566406 70.941406 -80.238281 69.703125 -80.625 L 66.96875 -81.484375 Z M 81.1875 -81.484375 "/></g></g></g><g fill="#000000" fill-opacity="1"><g transform="translate(378.20102, 331.026963)"><g><path d="M 75.015625 -81.625 L 73 -81.046875 C 69.738281 -80.085938 67.582031 -78.03125 66.53125 -74.875 L 41.53125 0 L 40.953125 0 L 15.8125 -75.15625 C 14.757812 -78.125 12.695312 -80.085938 9.625 -81.046875 L 7.328125 -81.765625 L 31.046875 -81.765625 L 27.875 -80.90625 C 26.914062 -80.613281 26.195312 -80.039062 25.71875 -79.1875 C 25.238281 -78.320312 25.144531 -77.410156 25.4375 -76.453125 L 45.84375 -15.515625 L 66.109375 -76.3125 C 66.484375 -77.363281 66.429688 -78.320312 65.953125 -79.1875 C 65.472656 -79.945312 64.707031 -80.472656 63.65625 -80.765625 L 60.5 -81.625 Z M 75.015625 -81.625 "/></g></g></g><g fill="#000000" fill-opacity="1"><g transform="translate(459.966324, 331.026963)"><g><path d="M 54.03125 -0.859375 C 54.988281 -1.148438 55.660156 -1.773438 56.046875 -2.734375 C 56.429688 -3.691406 56.476562 -4.648438 56.1875 -5.609375 L 48.71875 -27.875 L 22.84375 -27.875 L 15.375 -5.75 C 14.988281 -4.695312 15.035156 -3.738281 15.515625 -2.875 C 15.992188 -1.914062 16.757812 -1.289062 17.8125 -1 L 20.984375 0 L 6.890625 0 L 8.90625 -0.71875 C 12.164062 -1.675781 14.320312 -3.734375 15.375 -6.890625 L 40.375 -81.765625 L 40.953125 -81.765625 L 66.109375 -6.609375 C 67.160156 -3.640625 69.21875 -1.675781 72.28125 -0.71875 L 74.578125 0 L 50.875 0 Z M 48.578125 -28.453125 L 35.78125 -66.671875 L 23 -28.453125 Z M 48.578125 -28.453125 "/></g></g></g><path stroke-linecap="butt" transform="matrix(1.199983, -0.00636578, 0.00636578, 1.199983, 59.999998, 367.928853)" fill="none" stroke-linejoin="miter" d="M 0.000611311 0.498753 L 105.81916 0.500204 " stroke="#000000" stroke-width="1" stroke-opacity="1" stroke-miterlimit="4"/><g fill="#000000" fill-opacity="1"><g transform="translate(212.203365, 381.802475)"><g><path d="M 25.578125 -7.25 L 23.328125 0 L 2.40625 0 L 3.5 -0.34375 C 4.007812 -0.5 4.425781 -0.785156 4.75 -1.203125 C 5.039062 -1.585938 5.1875 -2.050781 5.1875 -2.59375 L 5.1875 -31.0625 C 5.1875 -31.601562 5.039062 -32.082031 4.75 -32.5 C 4.425781 -32.882812 4.007812 -33.15625 3.5 -33.3125 L 2.40625 -33.640625 L 21.59375 -33.640625 L 23.140625 -26.203125 L 23.09375 -26.453125 C 22.832031 -27.472656 22.414062 -28.414062 21.84375 -29.28125 C 21.257812 -30.144531 20.570312 -30.894531 19.78125 -31.53125 C 18.976562 -32.144531 18.082031 -32.625 17.09375 -32.96875 C 16.09375 -33.289062 15.066406 -33.453125 14.015625 -33.453125 L 9.40625 -33.453125 L 9.40625 -18 L 14.203125 -18 C 14.753906 -18 15.234375 -18.160156 15.640625 -18.484375 C 16.023438 -18.765625 16.300781 -19.164062 16.46875 -19.6875 L 17.046875 -21.703125 L 17.046875 -14.109375 L 16.46875 -16.125 C 16.300781 -16.632812 16.023438 -17.050781 15.640625 -17.375 C 15.234375 -17.664062 14.753906 -17.8125 14.203125 -17.8125 L 9.40625 -17.8125 L 9.40625 -2.640625 C 9.40625 -2.097656 9.566406 -1.632812 9.890625 -1.25 C 10.171875 -0.832031 10.570312 -0.546875 11.09375 -0.390625 L 11.46875 -0.28125 L 16.46875 -0.28125 C 18.445312 -0.28125 20.238281 -0.84375 21.84375 -1.96875 C 23.4375 -3.082031 24.570312 -4.570312 25.25 -6.4375 Z M 25.578125 -7.25 "/></g></g></g><g fill="#000000" fill-opacity="1"><g transform="translate(240.187336, 381.802475)"><g><path d="M 27.125 -27.21875 L 26.203125 -26.96875 C 25.785156 -26.84375 25.453125 -26.617188 25.203125 -26.296875 C 24.941406 -25.984375 24.8125 -25.601562 24.8125 -25.15625 L 24.8125 0 L 24.625 0 L 4.890625 -25.53125 L 4.890625 -2.0625 C 4.890625 -1.613281 5.019531 -1.226562 5.28125 -0.90625 C 5.53125 -0.59375 5.863281 -0.367188 6.28125 -0.234375 L 7.203125 0 L 2.5 0 L 3.40625 -0.234375 C 3.820312 -0.367188 4.160156 -0.59375 4.421875 -0.90625 C 4.671875 -1.226562 4.796875 -1.613281 4.796875 -2.0625 L 4.796875 -25.15625 C 4.796875 -25.601562 4.671875 -25.984375 4.421875 -26.296875 C 4.160156 -26.617188 3.820312 -26.84375 3.40625 -26.96875 L 2.5 -27.21875 L 7.921875 -27.21875 L 24.671875 -5.515625 L 24.671875 -25.109375 C 24.671875 -25.554688 24.539062 -25.9375 24.28125 -26.25 C 24.03125 -26.570312 23.695312 -26.796875 23.28125 -26.921875 L 22.375 -27.21875 Z M 27.125 -27.21875 "/></g></g></g><g fill="#000000" fill-opacity="1"><g transform="translate(269.611304, 381.802475)"><g><path d="M 21.171875 -5.859375 L 19.34375 0 L 2.40625 0 L 3.3125 -0.234375 C 3.726562 -0.367188 4.0625 -0.59375 4.3125 -0.90625 C 4.570312 -1.226562 4.703125 -1.613281 4.703125 -2.0625 L 4.703125 -25.15625 C 4.703125 -25.601562 4.570312 -25.984375 4.3125 -26.296875 C 4.0625 -26.617188 3.726562 -26.84375 3.3125 -26.96875 L 2.40625 -27.21875 L 17.953125 -27.21875 L 19.203125 -21.21875 L 19.15625 -21.40625 C 18.925781 -22.238281 18.585938 -23.007812 18.140625 -23.71875 C 17.660156 -24.414062 17.101562 -25.019531 16.46875 -25.53125 C 15.789062 -26.007812 15.066406 -26.394531 14.296875 -26.6875 C 13.503906 -26.976562 12.675781 -27.125 11.8125 -27.125 L 8.0625 -27.125 L 8.0625 -14.59375 L 11.953125 -14.59375 C 12.398438 -14.59375 12.785156 -14.71875 13.109375 -14.96875 C 13.421875 -15.226562 13.644531 -15.566406 13.78125 -15.984375 L 14.25 -17.609375 L 14.25 -11.46875 L 13.78125 -13.109375 C 13.644531 -13.523438 13.421875 -13.859375 13.109375 -14.109375 C 12.785156 -14.367188 12.398438 -14.5 11.953125 -14.5 L 8.0625 -14.5 L 8.0625 -2.203125 C 8.0625 -1.753906 8.191406 -1.375 8.453125 -1.0625 C 8.703125 -0.738281 9.035156 -0.515625 9.453125 -0.390625 L 9.796875 -0.28125 L 13.828125 -0.28125 C 15.421875 -0.28125 16.875 -0.726562 18.1875 -1.625 C 19.46875 -2.519531 20.378906 -3.722656 20.921875 -5.234375 Z M 21.171875 -5.859375 "/></g></g></g><g fill="#000000" fill-opacity="1"><g transform="translate(293.179284, 381.802475)"><g><path d="M 18.234375 -8.828125 C 18.941406 -7.546875 19.566406 -6.425781 20.109375 -5.46875 C 20.648438 -4.507812 21.195312 -3.675781 21.75 -2.96875 C 22.257812 -2.269531 22.800781 -1.679688 23.375 -1.203125 C 23.914062 -0.722656 24.570312 -0.320312 25.34375 0 L 20.734375 0 C 19.742188 0 18.945312 -0.285156 18.34375 -0.859375 C 17.695312 -1.441406 17.132812 -2.210938 16.65625 -3.171875 C 16.144531 -4.128906 15.648438 -5.25 15.171875 -6.53125 C 14.660156 -7.78125 14.035156 -9.109375 13.296875 -10.515625 C 12.816406 -11.441406 12.351562 -12.066406 11.90625 -12.390625 C 11.425781 -12.703125 10.785156 -12.859375 9.984375 -12.859375 L 8.25 -12.859375 L 8.25 -2.015625 C 8.25 -1.566406 8.378906 -1.179688 8.640625 -0.859375 C 8.898438 -0.546875 9.234375 -0.320312 9.640625 -0.1875 L 10.5625 0 L 2.359375 0 L 3.265625 -0.1875 C 3.679688 -0.320312 4.015625 -0.546875 4.265625 -0.859375 C 4.523438 -1.179688 4.65625 -1.566406 4.65625 -2.015625 L 4.65625 -25.109375 C 4.65625 -25.554688 4.523438 -25.9375 4.265625 -26.25 C 4.015625 -26.570312 3.679688 -26.796875 3.265625 -26.921875 L 2.359375 -27.171875 L 11.515625 -27.171875 C 13.242188 -27.171875 14.65625 -26.976562 15.75 -26.59375 C 16.832031 -26.207031 17.695312 -25.695312 18.34375 -25.0625 C 18.945312 -24.414062 19.375 -23.660156 19.625 -22.796875 C 19.851562 -21.929688 19.96875 -21.003906 19.96875 -20.015625 C 19.96875 -19.085938 19.875 -18.222656 19.6875 -17.421875 C 19.457031 -16.585938 19.085938 -15.867188 18.578125 -15.265625 C 18.035156 -14.617188 17.316406 -14.09375 16.421875 -13.6875 C 15.492188 -13.269531 14.304688 -13.007812 12.859375 -12.90625 C 13.367188 -12.84375 13.867188 -12.75 14.359375 -12.625 C 14.804688 -12.46875 15.253906 -12.242188 15.703125 -11.953125 C 16.109375 -11.660156 16.519531 -11.273438 16.9375 -10.796875 C 17.351562 -10.285156 17.785156 -9.628906 18.234375 -8.828125 Z M 11.46875 -13.109375 C 11.976562 -13.109375 12.523438 -13.265625 13.109375 -13.578125 C 13.679688 -13.867188 14.207031 -14.316406 14.6875 -14.921875 C 15.164062 -15.503906 15.566406 -16.242188 15.890625 -17.140625 C 16.210938 -18.003906 16.375 -18.992188 16.375 -20.109375 C 16.375 -21.234375 16.210938 -22.226562 15.890625 -23.09375 C 15.566406 -23.957031 15.164062 -24.675781 14.6875 -25.25 C 14.207031 -25.820312 13.679688 -26.269531 13.109375 -26.59375 C 12.523438 -26.882812 11.976562 -27.03125 11.46875 -27.03125 L 8.25 -27.03125 L 8.25 -13.109375 Z M 11.46875 -13.109375 "/></g></g></g><g fill="#000000" fill-opacity="1"><g transform="translate(321.019261, 381.802475)"><g><path d="M 25.4375 -10.609375 L 24.53125 -10.375 C 24.113281 -10.238281 23.773438 -10.015625 23.515625 -9.703125 C 23.265625 -9.378906 23.140625 -8.992188 23.140625 -8.546875 L 23.140625 -1.15625 C 22.847656 -1.25 22.523438 -1.3125 22.171875 -1.34375 C 21.859375 -1.375 21.476562 -1.359375 21.03125 -1.296875 C 20.582031 -1.234375 20.082031 -1.085938 19.53125 -0.859375 C 19.082031 -0.671875 18.507812 -0.476562 17.8125 -0.28125 C 17.101562 -0.09375 16.269531 0 15.3125 0 C 13.332031 0 11.539062 -0.367188 9.9375 -1.109375 C 8.332031 -1.804688 6.972656 -2.78125 5.859375 -4.03125 C 4.734375 -5.25 3.867188 -6.691406 3.265625 -8.359375 C 2.660156 -9.984375 2.359375 -11.738281 2.359375 -13.625 C 2.359375 -15.519531 2.660156 -17.296875 3.265625 -18.953125 C 3.867188 -20.585938 4.734375 -22.03125 5.859375 -23.28125 C 6.972656 -24.5 8.332031 -25.472656 9.9375 -26.203125 C 11.539062 -26.910156 13.332031 -27.265625 15.3125 -27.265625 C 16.78125 -27.265625 18.1875 -26.976562 19.53125 -26.40625 C 20.082031 -26.144531 20.582031 -26 21.03125 -25.96875 C 21.476562 -25.90625 21.859375 -25.890625 22.171875 -25.921875 C 22.523438 -25.953125 22.847656 -26.015625 23.140625 -26.109375 L 23.609375 -21.40625 C 23.484375 -22.332031 23.148438 -23.132812 22.609375 -23.8125 C 22.066406 -24.445312 21.570312 -24.941406 21.125 -25.296875 C 20.164062 -25.898438 19.1875 -26.347656 18.1875 -26.640625 C 17.195312 -26.898438 16.238281 -27.03125 15.3125 -27.03125 C 13.875 -27.03125 12.578125 -26.628906 11.421875 -25.828125 C 10.273438 -25.023438 9.285156 -23.984375 8.453125 -22.703125 C 7.617188 -21.421875 6.976562 -19.984375 6.53125 -18.390625 C 6.082031 -16.785156 5.859375 -15.179688 5.859375 -13.578125 C 5.859375 -11.984375 6.082031 -10.382812 6.53125 -8.78125 C 6.976562 -7.1875 7.617188 -5.75 8.453125 -4.46875 C 9.285156 -3.1875 10.273438 -2.144531 11.421875 -1.34375 C 12.578125 -0.539062 13.875 -0.140625 15.3125 -0.140625 C 15.851562 -0.140625 16.378906 -0.1875 16.890625 -0.28125 C 17.367188 -0.351562 17.832031 -0.46875 18.28125 -0.625 C 18.695312 -0.75 19.035156 -0.972656 19.296875 -1.296875 C 19.554688 -1.617188 19.6875 -1.988281 19.6875 -2.40625 L 19.6875 -8.546875 C 19.6875 -8.992188 19.554688 -9.378906 19.296875 -9.703125 C 19.035156 -10.015625 18.695312 -10.238281 18.28125 -10.375 L 17.375 -10.609375 Z M 25.4375 -10.609375 "/></g></g></g><g fill="#000000" fill-opacity="1"><g transform="translate(348.955241, 381.802475)"><g><path d="M 4.703125 -28.703125 L 3.171875 -28.703125 L 6.09375 -32.640625 L 9.5 -32.640625 Z M 8.0625 -2.0625 C 8.0625 -1.613281 8.191406 -1.226562 8.453125 -0.90625 C 8.703125 -0.59375 9.035156 -0.367188 9.453125 -0.234375 L 10.375 0 L 2.453125 0 L 3.359375 -0.234375 C 3.773438 -0.367188 4.113281 -0.59375 4.375 -0.90625 C 4.625 -1.226562 4.75 -1.613281 4.75 -2.0625 L 4.75 -25.15625 C 4.75 -25.601562 4.625 -25.984375 4.375 -26.296875 C 4.113281 -26.617188 3.773438 -26.84375 3.359375 -26.96875 L 2.453125 -27.21875 L 10.375 -27.21875 L 9.453125 -26.96875 C 9.035156 -26.84375 8.703125 -26.617188 8.453125 -26.296875 C 8.191406 -25.984375 8.0625 -25.601562 8.0625 -25.15625 Z M 8.0625 -2.0625 "/></g></g></g><g fill="#000000" fill-opacity="1"><g transform="translate(361.675229, 381.802475)"><g><path d="M 18.046875 -0.28125 C 18.367188 -0.382812 18.59375 -0.59375 18.71875 -0.90625 C 18.84375 -1.226562 18.859375 -1.550781 18.765625 -1.875 L 16.265625 -9.3125 L 7.625 -9.3125 L 5.140625 -1.921875 C 5.003906 -1.566406 5.019531 -1.242188 5.1875 -0.953125 C 5.34375 -0.640625 5.597656 -0.4375 5.953125 -0.34375 L 7.015625 0 L 2.296875 0 L 2.96875 -0.234375 C 4.0625 -0.554688 4.785156 -1.242188 5.140625 -2.296875 L 13.484375 -27.3125 L 13.6875 -27.3125 L 22.078125 -2.203125 C 22.429688 -1.210938 23.117188 -0.554688 24.140625 -0.234375 L 24.90625 0 L 16.984375 0 Z M 16.21875 -9.5 L 11.953125 -22.265625 L 7.6875 -9.5 Z M 16.21875 -9.5 "/></g></g></g><path stroke-linecap="butt" transform="matrix(1.199983, -0.00636578, 0.00636578, 1.199983, 414.756103, 366.655228)" fill="none" stroke-linejoin="miter" d="M -0.00122167 0.498899 L 105.820582 0.500368 " stroke="#000000" stroke-width="1" stroke-opacity="1" stroke-miterlimit="4"/></svg>