<svg xmlns="http://www.w3.org/2000/svg" xmlns:xlink="http://www.w3.org/1999/xlink" width="800" zoomAndPan="magnify" viewBox="0 0 600 599.999999" height="800" preserveAspectRatio="xMidYMid meet" version="1.0"><defs><filter x="0%" y="0%" width="100%" height="100%" id="038b0298d7"><feColorMatrix values="0 0 0 0 1 0 0 0 0 1 0 0 0 0 1 0 0 0 1 0" color-interpolation-filters="sRGB"/></filter><g/><mask id="0a782f9b4b"><g filter="url(#038b0298d7)"><rect x="-60" width="720" fill="#000000" y="-60" height="719.999999" fill-opacity="0.8"/></g></mask><clipPath id="3c72a63edd"><path d="M 0.773438 0.773438 L 487.226562 0.773438 L 487.226562 487.226562 L 0.773438 487.226562 Z M 0.773438 0.773438 " clip-rule="nonzero"/></clipPath><clipPath id="1cafd2cb34"><path d="M 244 0.773438 C 109.671875 0.773438 0.773438 109.671875 0.773438 244 C 0.773438 378.328125 109.671875 487.226562 244 487.226562 C 378.328125 487.226562 487.226562 378.328125 487.226562 244 C 487.226562 109.671875 378.328125 0.773438 244 0.773438 Z M 244 0.773438 " clip-rule="nonzero"/></clipPath><clipPath id="535fb924ce"><rect x="0" width="488" y="0" height="488"/></clipPath></defs><g mask="url(#0a782f9b4b)"><g transform="matrix(1, 0, 0, 1, 56, 56)"><g clip-path="url(#535fb924ce)"><g clip-path="url(#3c72a63edd)"><g clip-path="url(#1cafd2cb34)"><path fill="#2a9e82" d="M 0.773438 0.773438 L 487.226562 0.773438 L 487.226562 487.226562 L 0.773438 487.226562 Z M 0.773438 0.773438 " fill-opacity="1" fill-rule="nonzero"/></g></g></g></g></g><g fill="#ffffff" fill-opacity="1"><g transform="translate(171.566609, 414.99682)"><g><path d="M 66.484375 -18.3125 C 66.484375 -14.46875 67.613281 -11.191406 69.875 -8.484375 C 71.90625 -5.535156 74.726562 -3.5 78.34375 -2.375 L 86.15625 0 L 16.953125 0 L 24.765625 -2.375 C 28.378906 -3.5 31.316406 -5.535156 33.578125 -8.484375 C 35.609375 -11.191406 36.625 -14.46875 36.625 -18.3125 L 36.625 -219.4375 C 36.625 -223.28125 35.609375 -226.675781 33.578125 -229.625 C 31.316406 -232.332031 28.378906 -234.253906 24.765625 -235.390625 L 16.953125 -237.765625 L 86.15625 -237.765625 L 78.34375 -235.390625 C 74.726562 -234.253906 71.90625 -232.332031 69.875 -229.625 C 67.613281 -226.675781 66.484375 -223.28125 66.484375 -219.4375 Z M 66.484375 -18.3125 "/></g></g></g><g fill="#ffffff" fill-opacity="1"><g transform="translate(249.595758, 414.99682)"><g/></g></g><g fill="#ffffff" fill-opacity="1"><g transform="translate(287.557784, 422.960868)"><g><path d="M 164.78125 -90.28125 L 160.6875 -36.8125 L 16.53125 -3.78125 L 23.609375 -7.84375 C 26.878906 -9.738281 29.289062 -12.378906 30.84375 -15.765625 C 32.21875 -18.859375 32.472656 -22.273438 31.609375 -26.015625 L -13.296875 -222.0625 C -14.148438 -225.8125 -15.894531 -228.898438 -18.53125 -231.328125 C -21.34375 -233.453125 -24.640625 -234.671875 -28.421875 -234.984375 L -36.5625 -235.546875 L 95.671875 -265.84375 L 118.015625 -217.015625 L 117.28125 -218.59375 C 113.90625 -225.226562 109.5625 -231.070312 104.25 -236.125 C 98.90625 -241.164062 92.972656 -245.257812 86.453125 -248.40625 C 79.992188 -251.332031 73.066406 -253.226562 65.671875 -254.09375 C 58.335938 -254.726562 51.03125 -254.210938 43.75 -252.546875 L 12.03125 -245.28125 L 36.40625 -138.8125 L 69.453125 -146.390625 C 73.191406 -147.242188 76.242188 -149.101562 78.609375 -151.96875 C 80.804688 -154.5625 82.054688 -157.75 82.359375 -161.53125 L 83.125 -176.328125 L 95.09375 -124.09375 L 87.953125 -137.078125 C 86.046875 -140.335938 83.507812 -142.769531 80.34375 -144.375 C 77.03125 -145.695312 73.503906 -145.929688 69.765625 -145.078125 L 36.71875 -137.5 L 60.640625 -33.03125 C 61.503906 -29.28125 63.335938 -26.335938 66.140625 -24.203125 C 68.773438 -21.785156 71.976562 -20.4375 75.75 -20.15625 L 78.5625 -20.078125 L 112.953125 -27.96875 C 126.609375 -31.09375 138.066406 -37.773438 147.328125 -48.015625 C 156.578125 -58.253906 162.050781 -70.296875 163.75 -84.140625 Z M 164.78125 -90.28125 "/></g></g></g></svg>